<svg width="20" height="20" viewBox="0 0 20 20" fill="none" xmlns="http://www.w3.org/2000/svg">
<mask id="mask0_406_80" style="mask-type:alpha" maskUnits="userSpaceOnUse" x="0" y="0" width="20" height="20">
<rect width="20" height="20" fill="#D9D9D9"/>
</mask>
<g mask="url(#mask0_406_80)">
<path d="M5.93267 16.5834C5.85003 16.5834 5.78079 16.5554 5.72496 16.4995C5.66899 16.4436 5.641 16.3744 5.641 16.2917V14.5851C5.31086 14.4013 5.02426 14.1043 4.78121 13.694C4.53815 13.2838 4.41663 12.8324 4.41663 12.3399V5.00008C4.41663 4.14425 4.786 3.49973 5.52475 3.06654C6.26336 2.63335 7.75503 2.41675 9.99975 2.41675C12.2253 2.41675 13.7123 2.63466 14.4606 3.0705C15.2091 3.50619 15.5833 4.14939 15.5833 5.00008V12.3399C15.5833 12.8324 15.4618 13.2838 15.2187 13.694C14.9757 14.1043 14.6891 14.4013 14.3589 14.5851V16.2917C14.3589 16.3744 14.3309 16.4436 14.275 16.4995C14.2191 16.5554 14.1499 16.5834 14.0673 16.5834H13.3877C13.3052 16.5834 13.2359 16.5554 13.18 16.4995C13.1241 16.4436 13.0962 16.3744 13.0962 16.2917V15.0834H6.90371V16.2917C6.90371 16.3744 6.87579 16.4436 6.81996 16.4995C6.76399 16.5554 6.69475 16.5834 6.61225 16.5834H5.93267ZM5.49996 8.91675H14.5V5.80779H5.49996V8.91675ZM8.096 12.5942C8.2585 12.4306 8.33975 12.232 8.33975 11.9982C8.33975 11.7645 8.25788 11.5664 8.09413 11.404C7.93051 11.2415 7.73183 11.1603 7.49808 11.1603C7.26433 11.1603 7.06628 11.2422 6.90392 11.4059C6.74142 11.5695 6.66017 11.7682 6.66017 12.002C6.66017 12.2357 6.74204 12.4338 6.90579 12.5961C7.0694 12.7586 7.26808 12.8399 7.50183 12.8399C7.73558 12.8399 7.93364 12.758 8.096 12.5942ZM13.096 12.5942C13.2585 12.4306 13.3398 12.232 13.3398 11.9982C13.3398 11.7645 13.2579 11.5664 13.0941 11.404C12.9305 11.2415 12.7318 11.1603 12.4981 11.1603C12.2643 11.1603 12.0663 11.2422 11.9039 11.4059C11.7414 11.5695 11.6602 11.7682 11.6602 12.002C11.6602 12.2357 11.742 12.4338 11.9058 12.5961C12.0694 12.7586 12.2681 12.8399 12.5018 12.8399C12.7356 12.8399 12.9336 12.758 13.096 12.5942Z" fill="black"/>
</g>
</svg>
