<svg width="20" height="20" viewBox="0 0 20 20" fill="none" xmlns="http://www.w3.org/2000/svg">
<mask id="mask0_406_77" style="mask-type:alpha" maskUnits="userSpaceOnUse" x="0" y="0" width="20" height="20">
<rect width="20" height="20" fill="#D9D9D9"/>
</mask>
<g mask="url(#mask0_406_77)">
<path d="M4.41663 14.3398V6.99997C4.41663 6.23497 4.80288 5.61185 5.57538 5.1306C6.34774 4.64935 7.72697 4.41136 9.71308 4.41664L10.2131 3.41664H6.03204V2.6731H13.9679V3.41664H10.9535L10.4535 4.41664C12.4193 4.41136 13.7657 4.65414 14.4927 5.14497C15.2198 5.63594 15.5833 6.25428 15.5833 6.99997V14.3398C15.5833 15.0149 15.3643 15.6062 14.9262 16.1137C14.4882 16.6212 13.9385 16.9305 13.2773 17.0416L14.3398 18.0833V18.5833H13.1956L11.6956 17.0833H8.30433L6.80433 18.5833H5.66017V18.0833L6.70183 17.0416C6.04058 16.9305 5.4944 16.6212 5.06329 16.1137C4.63218 15.6062 4.41663 15.0149 4.41663 14.3398ZM10.596 14.596C10.7585 14.4337 10.8398 14.235 10.8398 14C10.8398 13.765 10.7585 13.5663 10.596 13.4039C10.4336 13.2414 10.235 13.1602 9.99996 13.1602C9.76496 13.1602 9.56628 13.2414 9.40392 13.4039C9.24142 13.5663 9.16017 13.765 9.16017 14C9.16017 14.235 9.24142 14.4337 9.40392 14.596C9.56628 14.7585 9.76496 14.8398 9.99996 14.8398C10.235 14.8398 10.4336 14.7585 10.596 14.596ZM5.49996 10.9166H14.5V7.80768H5.49996V10.9166Z" fill="black"/>
</g>
</svg>
